<svg version="1.1" xmlns="http://www.w3.org/2000/svg" xmlns:xlink="http://www.w3.org/1999/xlink" width="82.89073" height="105.96614" viewBox="0,0,82.89073,105.96614"><g transform="translate(-192.82217,-127.37215)"><g data-paper-data="{&quot;isPaintingLayer&quot;:true}" fill-rule="nonzero" stroke="none" stroke-linecap="butt" stroke-linejoin="miter" stroke-miterlimit="10" stroke-dasharray="" stroke-dashoffset="0" style="mix-blend-mode: normal"><path d="M246.60166,189.30474c-2.05842,-1.41877 -0.63965,-3.47719 -0.63965,-3.47719l0.14517,-0.21062c-0.65342,-0.27772 -1.30192,-0.49408 -1.93949,-0.62998c-0.24335,-0.05187 -0.48486,-0.01555 -0.72598,0.05619c0.36924,1.13334 -0.37363,2.21113 -0.37363,2.21113c-1.77631,2.57716 -3.54684,5.1584 -5.32897,7.73154c-0.98698,1.42506 -2.90701,3.89968 -3.06413,5.57897c-0.28804,3.07861 1.22818,6.06131 1.78364,9.10306c0.46161,2.52779 1.30354,4.97195 2.03075,7.4365c0.21096,0.71496 -0.02171,1.55347 0.3271,2.21227c1.26655,2.39211 5.06805,4.2395 7.14177,5.66881c1.54234,1.06306 2.84103,2.50607 4.51635,3.34403c1.38381,0.69215 4.14839,-4.10233 5.1591,-5.23211c3.06836,-4.46125 6.58691,-8.63763 8.41227,-13.69241c0.34764,-0.96269 1.23264,-1.78927 1.23157,-2.81281c-0.00128,-1.22201 -1.31927,-2.23132 -1.23812,-3.45063c0.06733,-1.0117 1.29476,-1.60895 1.63833,-2.5629c0.25489,-0.70772 -1.45143,-2.5728 -1.55258,-2.65632c-2.31064,-1.90799 -4.95285,-3.37455 -7.42013,-5.07513c-1.81089,-1.24816 -3.9877,-3.09528 -6.26743,-4.70257l-0.35877,0.52052c0,0 -1.41877,2.05842 -3.47719,0.63965zM253.91244,170.99448c3.27997,-5.82577 8.82832,-10.75792 11.61844,-16.81083c0.41435,-0.8989 0.40046,-1.95847 0.82554,-2.85236c1.2112,-2.547 3.91752,-4.44886 4.32465,-7.41414c0.24862,-1.81079 -0.95827,-4.74201 -1.24033,-6.61077c-2.11383,-2.70731 -5.4047,-3.98246 -8.75958,-4.70319c-1.36043,-0.29226 -3.05096,-0.75161 -4.17382,0.0702c-1.57773,1.15472 -1.90401,3.44732 -3.18047,4.92828c-1.15048,1.33479 -5.68609,5.34143 -6.87528,6.66574c-2.40545,2.6788 -4.16573,6.25972 -6.2933,9.14963c-4.19299,5.69541 -8.68261,11.08764 -12.75741,16.8693c4.0242,3.15347 5.42482,6.9376 6.35689,11.95207c2.36172,-0.91124 4.81371,-1.24834 7.62512,-1.71403c1.11221,-0.18423 2.23726,-0.72066 3.34401,-0.50608c1.34318,0.26042 2.67262,0.75109 3.97936,1.38737c1.83715,-3.40705 3.24895,-6.93483 5.20618,-10.4112zM236.13817,150.4441c2.20402,-2.99427 4.01593,-6.6243 6.49623,-9.40606c2.12432,-2.38251 4.78847,-4.25031 6.87528,-6.66574c0.68173,-0.78909 3.43542,-5.35623 4.28008,-5.89587c3.5718,-2.28198 8.32299,-0.50238 11.76834,0.6558c2.94706,0.99067 3.72366,0.64584 6.11531,2.99265c0.93846,0.92087 1.56363,2.11421 2.34545,3.17132c0.4897,2.38363 1.98864,6.63928 1.64275,9.06184c-0.60106,4.20971 -3.19972,5.67133 -4.78697,9.11473c-0.41435,0.8989 -0.40046,1.95847 -0.82554,2.85236c-2.94956,6.20255 -8.4601,11.2214 -11.82901,17.20793c-1.95793,3.47922 -3.39901,7.01002 -5.23488,10.43015c2.31852,1.59402 4.52361,3.36534 6.55738,4.76711c3.455,2.38136 8.6942,4.59956 10.38838,8.75413c0.52724,1.29291 0.84119,2.75911 0.63613,4.14026c-0.12709,0.85603 -1.50811,1.21211 -1.55905,2.07602c-0.06102,1.03491 1.29998,1.80311 1.26922,2.83936c-0.0463,1.55937 -1.00968,2.95243 -1.4853,4.43822c-1.81674,5.67532 -5.84794,10.3161 -9.22571,15.20692c-1.17104,1.31897 -5.29517,5.99836 -5.77684,6.28727c-1.26472,0.75858 -2.91826,1.05241 -4.36092,0.74631c-1.53796,-0.32632 -2.67171,-1.65859 -3.98834,-2.51784c-3.78877,-2.47258 -8.82233,-5.13165 -11.12128,-9.19992c-0.50475,-0.89322 -0.3332,-2.03102 -0.63393,-3.01193c-1.31401,-4.28601 -2.27329,-8.36999 -3.04842,-12.83414c-0.3265,-1.88035 -1.14734,-3.75331 -0.93018,-5.6494c0.52995,-4.62709 4.84617,-9.70114 7.91663,-13.76454c-1.58635,0.33154 -3.08573,0.84516 -4.4918,1.96713l0.02139,0.19503c0,0 -0.53757,0.77993 -1.43099,1.04873c-0.27941,0.36071 -0.61199,0.74332 -1.01366,1.1635c-2.05682,2.15158 -4.7276,3.61857 -7.05326,5.47627c-3.82575,3.05594 -6.26998,4.75296 -11.10302,5.53489c-1.71202,0.27698 -3.44863,1.09981 -5.14798,0.75351c-1.62015,-0.33016 -2.81436,-1.73773 -4.18919,-2.65628c-0.99086,-0.66202 -2.15289,-1.15927 -2.90508,-2.08355c-3.64112,-4.47417 -3.3982,-9.25143 -3.76372,-14.55496c-0.07341,-1.06514 -0.20546,-2.10281 -0.39558,-3.11719l-0.94616,-0.33986c0,0 -2.05842,-1.41877 -0.63965,-3.47719c0.12596,-0.18275 0.25696,-0.33809 0.39112,-0.46945c-0.49246,-1.31552 -1.09346,-2.5984 -1.80154,-3.85954c0,0 -1.20662,-2.18954 0.98292,-3.39615c2.18954,-1.20662 3.39615,0.98292 3.39615,0.98292c0.92565,1.70633 1.70239,3.42896 2.32162,5.19693c1.39219,-0.89963 2.40462,-2.13506 4.41994,-3.0744c0.85454,-0.3983 1.91921,-0.13106 2.78175,-0.51172c2.09536,-0.92473 3.36743,-3.48416 5.60458,-3.97489c1.13025,-0.24793 2.21397,0.92578 3.36797,0.84087c1.19861,-0.08819 2.14791,-1.30054 3.34926,-1.33509c1.55665,-0.04478 2.77047,0.33609 3.88591,0.92667c4.11146,-5.83842 8.64228,-11.2838 12.87421,-17.0331zM201.20745,179.92606c0.14487,0.89679 0.25215,1.81027 0.32091,2.74357c0.20406,2.76989 -0.18855,5.83435 0.83086,8.53614c0.73572,1.9499 3.76084,5.82604 6.09054,6.28495c1.92001,0.37821 3.85946,-0.69188 5.73895,-1.23684c2.40941,-0.69862 4.3837,-2.48601 6.33601,-4.06137c3.56734,-2.87855 7.0859,-4.45173 8.46148,-8.93768c-0.93033,-4.34164 -1.75496,-7.05672 -5.39726,-9.56718c-0.64008,-0.44118 -2.8162,-2.2968 -3.96701,-2.14307c-1.19127,0.15913 -2.15026,1.25241 -3.34926,1.33509c-0.95057,0.06555 -1.7618,-1.03576 -2.70725,-0.91743c-0.68175,0.08532 -0.93966,1.00891 -1.47406,1.44075c-0.96894,0.78298 -1.89579,1.66847 -3.02492,2.19476c-0.85454,0.3983 -1.91921,0.13106 -2.78175,0.51172c-1.92871,0.85119 -3.13091,2.93645 -5.05178,3.8052c-0.00848,0.00384 -0.01697,0.00764 -0.02547,0.01141z" fill="#000000" stroke-width="0.5"/><path d="M246.59157,189.25576c2.05842,1.41877 3.487,-0.64067 3.487,-0.64067l0.35974,-0.52052c2.27973,1.60729 4.47718,3.45919 6.28807,4.70735c2.46728,1.70058 5.13049,3.18577 7.44113,5.09376c0.10115,0.08352 1.81165,1.95687 1.55676,2.66459c-0.34357,0.95395 -1.56908,1.55715 -1.63641,2.56885c-0.08115,1.21931 1.23839,2.24069 1.23967,3.4627c0.00107,1.02354 -0.88487,1.86005 -1.23251,2.82274c-1.82536,5.05478 -5.37719,9.26897 -8.44555,13.73022c-1.01071,1.12978 -3.79037,5.92681 -5.17418,5.23466c-1.67532,-0.83796 -2.98592,-2.28224 -4.52826,-3.3453c-2.07372,-1.42931 -5.89742,-3.28823 -7.16397,-5.68034c-0.34881,-0.6588 -0.12003,-1.50121 -0.33099,-2.21617c-0.72721,-2.46455 -1.58069,-4.93136 -2.0423,-7.45915c-0.55546,-3.04175 -2.06934,-6.05345 -1.7813,-9.13206c0.15712,-1.67929 2.08724,-4.16981 3.07422,-5.59487c1.78213,-2.57314 3.57191,-5.16708 5.34822,-7.74424c0,0 0.74519,-1.07857 0.37595,-2.21191c0.24112,-0.07174 0.48414,-0.1085 0.72749,-0.05663c0.63757,0.1359 1.28993,0.35135 1.94335,0.62907l-0.1258,0.30873c0,0 -1.43873,1.96043 0.61969,3.3792z" data-paper-data="{&quot;noHover&quot;:false,&quot;origItem&quot;:[&quot;Path&quot;,{&quot;applyMatrix&quot;:true,&quot;segments&quot;:[[[246.60166,189.30474],[0,0],[-2.05842,-1.41877]],[245.96201,185.82755],[[246.10718,185.61693],[0,0],[-0.65342,-0.27772]],[[244.16769,184.98695],[0.63757,0.1359],[-0.24335,-0.05187]],[[243.44171,185.04314],[0.24112,-0.07174],[0.36924,1.13334]],[[243.06808,187.25427],[0,0],[-1.77631,2.57716]],[[237.73911,194.98581],[1.78213,-2.57314],[-0.98698,1.42506]],[[234.67498,200.56478],[0.15712,-1.67929],[-0.28804,3.07861]],[[236.45862,209.66784],[-0.55546,-3.04175],[0.46161,2.52779]],[[238.48937,217.10434],[-0.72721,-2.46455],[0.21096,0.71496]],[[238.81647,219.31661],[-0.34881,-0.6588],[1.26655,2.39211]],[[245.95824,224.98542],[-2.07372,-1.42931],[1.54234,1.06306]],[[250.47459,228.32945],[-1.67532,-0.83796],[1.38381,0.69215]],[[255.63369,223.09734],[-1.01071,1.12978],[3.06836,-4.46125]],[[264.04596,209.40493],[-1.82536,5.05478],[0.34764,-0.96269]],[[265.27753,206.59212],[0.00107,1.02354],[-0.00128,-1.22201]],[[264.03941,203.14149],[-0.08115,1.21931],[0.06733,-1.0117]],[[265.67774,200.57859],[-0.34357,0.95395],[0.25489,-0.70772]],[[264.12516,197.92227],[0.10115,0.08352],[-2.31064,-1.90799]],[[256.70502,192.84714],[2.46728,1.70058],[-1.81089,-1.24816]],[[250.4376,188.14457],[2.27973,1.60729],[0,0]],[250.07883,188.66509],[[246.60164,189.30474],[2.05842,1.41877],[0,0]]],&quot;closed&quot;:true,&quot;fillColor&quot;:[0,0,0],&quot;strokeWidth&quot;:0.5}]}" fill="#642e00" stroke-width="0.25"/><path d="M253.92906,171.04163c-1.95723,3.47637 -3.38638,7.00699 -5.22353,10.41404c-1.30674,-0.63628 -2.64479,-1.12782 -3.98797,-1.38824c-1.10675,-0.21458 -2.23811,0.32022 -3.35032,0.50445c-2.81141,0.46569 -5.27385,0.79795 -7.63557,1.70919c-0.93207,-5.01447 -2.34942,-8.81543 -6.37362,-11.9689c4.0748,-5.78166 8.56126,-11.21938 12.75425,-16.91479c2.12757,-2.88991 3.92396,-6.50019 6.32941,-9.17899c1.18919,-1.32431 5.74529,-5.33079 6.89577,-6.66558c1.27646,-1.48096 1.60663,-3.77255 3.18436,-4.92727c1.12286,-0.82181 2.82022,-0.35983 4.18065,-0.06757c3.35488,0.72073 6.66017,2.00615 8.774,4.71346c0.28206,1.86876 1.49577,4.80872 1.24715,6.61951c-0.40713,2.96528 -3.1087,4.87722 -4.3199,7.42422c-0.42508,0.89389 -0.40935,1.96051 -0.8237,2.85941c-2.79012,6.05291 -8.37102,11.04129 -11.65099,16.86706z" data-paper-data="{&quot;noHover&quot;:false,&quot;origItem&quot;:[&quot;Path&quot;,{&quot;applyMatrix&quot;:true,&quot;segments&quot;:[[[253.91244,170.99448],[0,0],[3.27997,-5.82577]],[[265.53087,154.18365],[-2.79012,6.05291],[0.41435,-0.8989]],[[266.35642,151.33129],[-0.42508,0.89389],[1.2112,-2.547]],[[270.68107,143.91715],[-0.40713,2.96528],[0.24862,-1.81079]],[[269.44074,137.30638],[0.28206,1.86876],[-2.11383,-2.70731]],[[260.68116,132.60319],[3.35488,0.72073],[-1.36043,-0.29226]],[[256.50734,132.67339],[1.12286,-0.82181],[-1.57773,1.15472]],[[253.32687,137.60167],[1.27646,-1.48096],[-1.15048,1.33479]],[[246.45159,144.26741],[1.18919,-1.32431],[-2.40545,2.6788]],[[240.15829,153.41704],[2.12757,-2.88991],[-4.19299,5.69541]],[[227.40088,170.28634],[4.0748,-5.78166],[4.0242,3.15347]],[[233.75777,182.23841],[-0.93207,-5.01447],[2.36172,-0.91124]],[[241.38289,180.52438],[-2.81141,0.46569],[1.11221,-0.18423]],[[244.7269,180.0183],[-1.10675,-0.21458],[1.34318,0.26042]],[[248.70626,181.40567],[-1.30674,-0.63628],[1.83715,-3.40705]],[[253.91244,170.99447],[-1.95723,3.47637],[0,0]]],&quot;closed&quot;:true,&quot;fillColor&quot;:[0,0,0],&quot;strokeWidth&quot;:0.5}]}" fill="#642e00" stroke-width="0.25"/><path d="M201.16,179.91028c0.0085,-0.00377 0.01701,-0.00763 0.02549,-0.01147c1.92087,-0.86875 3.13438,-2.97274 5.06309,-3.82393c0.86254,-0.38066 1.93538,-0.1203 2.78992,-0.5186c1.12913,-0.52629 2.0709,-1.41858 3.03984,-2.20156c0.5344,-0.43184 0.79929,-1.35679 1.48104,-1.44211c0.94545,-0.11833 1.76773,0.98287 2.7183,0.91732c1.199,-0.08268 2.16941,-1.17344 3.36068,-1.33257c1.15081,-0.15373 3.34129,1.70972 3.98137,2.1509c3.6423,2.51046 4.48592,5.26028 5.41625,9.60192c-1.37558,4.48595 -4.91496,6.10454 -8.4823,8.98309c-1.95231,1.57536 -3.95943,3.37184 -6.36884,4.07046c-1.87949,0.54496 -3.83792,1.60967 -5.75793,1.23146c-2.3297,-0.45891 -5.37629,-4.35638 -6.11201,-6.30628c-1.01941,-2.70179 -0.63201,-5.79627 -0.83607,-8.56616c-0.06876,-0.9333 -0.17395,-1.85571 -0.31882,-2.7525z" data-paper-data="{&quot;noHover&quot;:false,&quot;origItem&quot;:[&quot;Path&quot;,{&quot;applyMatrix&quot;:true,&quot;segments&quot;:[[[201.20745,179.92606],[0,0],[0.14487,0.89679]],[[201.52836,182.66963],[-0.06876,-0.9333],[0.20406,2.76989]],[[202.35922,191.20577],[-1.01941,-2.70179],[0.73572,1.9499]],[[208.44976,197.49072],[-2.3297,-0.45891],[1.92001,0.37821]],[[214.18871,196.25388],[-1.87949,0.54496],[2.40941,-0.69862]],[[220.52472,192.19251],[-1.95231,1.57536],[3.56734,-2.87855]],[[228.9862,183.25483],[-1.37558,4.48595],[-0.93033,-4.34164]],[[223.58894,173.68765],[3.6423,2.51046],[-0.64008,-0.44118]],[[219.62193,171.54458],[1.15081,-0.15373],[-1.19127,0.15913]],[[216.27267,172.87967],[1.199,-0.08268],[-0.95057,0.06555]],[[213.56542,171.96224],[0.94545,-0.11833],[-0.68175,0.08532]],[[212.09136,173.40299],[0.5344,-0.43184],[-0.96894,0.78298]],[[209.06644,175.59775],[1.12913,-0.52629],[-0.85454,0.3983]],[[206.28469,176.10947],[0.86254,-0.38066],[-1.92871,0.85119]],[[201.23291,179.91467],[1.92087,-0.86875],[-0.00848,0.00384]],[[201.20744,179.92608],[0.0085,-0.00377],[0,0]]],&quot;closed&quot;:true,&quot;fillColor&quot;:[0,0,0],&quot;strokeWidth&quot;:0.5}]}" fill="#642e00" stroke-width="0.25"/></g></g></svg>